<?xml version="1.0" encoding="UTF-8"?><svg id="Layer_1" xmlns="http://www.w3.org/2000/svg" viewBox="0 0 512 512"><path d="M372.01,334.76c-.17-3.34,4.37-2.1,9.53-7.29l.38-5.83-124.65.13c-1.78,6.03-4.31,9.97-8.63,13.76-5.88,5.17-15.75,6.13-22.36,1.01l-7.26-7.12-5.79,6.9c-4.58,5.45-15.07,4.81-21.14,1.13-5.76-3.49-8.54-9.43-10.84-15.68l-40.83-.17c-8.71-.04-20.18-10.01-21.88-21.08l-2.03-13.19.35-68.25c.08-15.32,12.36-34.94,24.93-34.94h118.37c1.38.01,3.27-.31,4.01-.81.9-.6,1.01-3.26,1.13-4.64.21-2.36,4.06-7.03,6.47-7.03h24.8c3.06,0,6.59,4.19,7.04,7.02.35,2.22,2.34,5.44,4.28,5.44l21.2.04c11.9.02,24.1,12.99,27.63,22.96l14.65,41.47c1.31,3.7,1.61,8.25,1.58,12.11l-.27,35.86c-.04,5.77-2.55,11.85-7.02,15.93l15.6.23.06-12.19c0-1.45-1.26-3.65-2.81-5.94l9.25.16,1.14,17.01c2.86-.15,5.25.55,6.07,2.24.66,1.35.79,4.33-.09,5.49s-4.14,1.79-5.89,1.89c-.47,4.42.53,10.52-2.82,14.33-2.84,3.23-13.96,3.03-14.17-.99ZM297.97,184.24c.16-2.88-.48-5.76-2.01-7.51l-21.77-.12c-1.45,2.13-2.22,4.84-2.32,7.58l26.1.05ZM251.99,302.59l.1-80.16c0-4.04,3.35-7.43,7.16-7.42l32.51.06c3.79,0,7.27,3.43,7.27,7.36l.03,90.24h54.25c2.97,0,5.6-2.29,7.24-4.61,3.18-3.4,5.86-7.97,5.82-13.03l-.35-43.76-12.36-34.73c-3.42-9.61-8.38-17.31-17.09-23.18-3.24-2.19-7.7-2.78-12.37-2.78l-178.74.04c-12.94,0-22.43,17.2-22.43,29.02l-.02,68.58c0,11.41,6.17,24.35,16.13,24.37l42.75.1c.7-10.53,8.33-19.77,18.67-19.15,4.33-.13,9.62.49,12.56,3.66l5.49,5.93,5.94-7.24c6.75-3.44,16.02-3.52,22.14,1.4l5.3,5.28ZM293.65,221.34h-36.17v91.33h36.17v-91.33ZM209.51,330.56c9.13-7.11,8.75-18.8,1.53-27.12-3.82-4.41-12.38-4.88-17.45-1.34-8.02,5.6-8.32,22.42.2,28.51,3.95,2.82,11.62,3.15,15.72-.04ZM248.04,326.04c4.61-7.36,2.49-16.9-3.8-23.08-3.56-3.49-11.28-4.58-15.71-1.05-7.46,5.96-7.78,18.31-2.13,25.15,3.31,4.01,7.01,5.63,11.62,5.48,3.62-.12,7.4-2.31,10.02-6.5Z" fill="#d97a2b" stroke="#d97a33" stroke-miterlimit="10" stroke-width="1.01"/><path d="M251.99,302.59l-5.3-5.28c-6.12-4.92-15.39-4.84-22.14-1.4l-5.94,7.24-5.49-5.93c-2.94-3.17-8.22-3.79-12.56-3.66-10.33-.62-17.96,8.61-18.67,19.15l-42.75-.1c-9.95-.02-16.13-12.96-16.13-24.37l.02-68.58c0-11.81,9.49-29.01,22.43-29.02l178.74-.04c4.67,0,9.12.59,12.37,2.78,8.71,5.87,13.67,13.57,17.09,23.18l12.36,34.73.35,43.76c.04,5.06-2.64,9.63-5.82,13.03-1.64,2.31-4.27,4.6-7.24,4.6h-54.25s-.03-90.24-.03-90.24c0-3.93-3.48-7.36-7.27-7.36l-32.51-.06c-3.81,0-7.16,3.38-7.16,7.42l-.1,80.16ZM355.73,248.25c-.53-.72-.3-3.19-.62-4.24l-7.18-23.62,1.94-3.15c-2.59-1.21-6.13-2.34-9.09-2.32l-23.74.14c-2.64.02-5.31,3.61-5.31,6.38l.06,25.88c.01,5.42,4.16,8.27,9,8.26l37.98-.09c1.85,0,3.86-1.15,3.73-2.77-.29-3.79-5.49-2.71-6.77-4.48ZM190.52,252.29l3.71-3.8-.05-23.67c0-2.55-2.18-6.99-4.44-8.12l-39.95-.13c-3.37,1.5-4.56,6.71-4.51,10.07l.26,16.96c.04,2.58,2.06,8.31,5.04,8.56l39.94.13ZM242.54,273.18c1.48,0,3.38-2.69,3.26-3.71s-1.03-2.82-1.96-3.82h-110.18c-2.3,0-4.05,1.6-4.51,3.25-.34,1.22,1.07,4.3,2.58,4.3l110.81-.03ZM359.73,273.23c1.4-1.75,2.8-3.99,2.4-5.09-.43-1.19-2.79-2.54-4.22-2.54l-53.23.1c-1.56,1.54-.78,7.39,1.47,7.4l53.58.13Z" fill="none" stroke="#d97a33" stroke-miterlimit="10" stroke-width="1.01"/><path d="M293.65,221.34v91.33h-36.17v-91.33h36.17ZM288.14,272.4l.06-34.87-22.62-.38c-.98,2.04-1.41,4.7-1.39,6.69l.22,22.03c.02,2.18,1.64,5.32,3.14,6.7,2.13,1.98,13.44,1.87,20.59-.17Z" fill="none" stroke="#d97a33" stroke-miterlimit="10" stroke-width="1.01"/><path d="M209.51,330.56c-4.09,3.19-11.77,2.87-15.72.04-8.52-6.09-8.22-22.91-.2-28.51,5.07-3.54,13.63-3.06,17.45,1.34,7.22,8.32,7.59,20.01-1.53,27.12ZM210.61,322.06c2.23-4.51,1.59-10.98-2.31-14.4-3.27-2.87-8.88-2.53-12.16.02-2.98,2.31-4.61,6.21-4.15,10.35.59,5.26,2.75,8.97,7.52,9.82,4.36.78,8.63-.79,11.1-5.79Z" fill="none" stroke="#d97a33" stroke-miterlimit="10" stroke-width="1.01"/><path d="M248.04,326.04c-2.62,4.19-6.4,6.37-10.02,6.5-4.61.15-8.31-1.47-11.62-5.48-5.65-6.84-5.33-19.2,2.13-25.15,4.43-3.53,12.15-2.44,15.71,1.05,6.3,6.19,8.41,15.73,3.8,23.08ZM241.53,326.22c5.79-4.77,5.61-12.62,1.13-17.86-2.23-2.61-7.36-4.04-10.57-2.1-6.63,3.99-7.33,12.99-2.15,18.81,2.43,2.73,8.41,3.78,11.6,1.15Z" fill="none" stroke="#d97a33" stroke-miterlimit="10" stroke-width="1.01"/><path d="M297.97,184.24l-26.1-.05c.1-2.74.87-5.45,2.32-7.58l21.77.12c1.53,1.75,2.17,4.63,2.01,7.51Z" fill="none" stroke="#d97a33" stroke-miterlimit="10" stroke-width="1.01"/><path d="M242.54,273.18l-110.81.03c-1.51,0-2.93-3.09-2.58-4.3.47-1.65,2.22-3.25,4.51-3.25h110.18c.94,1,1.84,2.8,1.96,3.82s-1.78,3.71-3.26,3.71Z" fill="#d97a2b" stroke="#d97a33" stroke-miterlimit="10" stroke-width="1.01"/><path d="M355.73,248.25c1.28,1.77,6.48.69,6.77,4.48.13,1.62-1.87,2.76-3.73,2.77l-37.98.09c-4.84.01-8.98-2.83-9-8.26l-.06-25.88c0-2.77,2.66-6.37,5.31-6.38l23.74-.14c2.95-.02,6.5,1.11,9.09,2.32l-1.94,3.15,7.18,23.62c.32,1.05.1,3.51.62,4.24ZM350.5,249.29l-8.64-27.82-24.75-.16.51,27.69,32.87.29Z" fill="#d97a2b" stroke="#d97a33" stroke-miterlimit="10" stroke-width="1.01"/><path d="M190.52,252.29l-39.94-.13c-2.98-.26-5-5.98-5.04-8.56l-.26-16.96c-.05-3.36,1.14-8.57,4.51-10.07l39.95.13c2.26,1.14,4.44,5.57,4.44,8.12l.05,23.67-3.71,3.8ZM184.44,246.55c1.35-.01,4-1.99,3.99-3.4l-.17-20-37.28.03v18.29c0,1.7,1.2,4.02,2.52,5.13l30.94-.04Z" fill="#d97a2b" stroke="#d97a33" stroke-miterlimit="10" stroke-width="1.01"/><path d="M359.73,273.23l-53.58-.13c-2.25,0-3.03-5.86-1.47-7.4l53.23-.1c1.43,0,3.79,1.36,4.22,2.54.4,1.09-1,3.33-2.4,5.09Z" fill="#d97a2b" stroke="#d97a33" stroke-miterlimit="10" stroke-width="1.01"/><path d="M288.14,272.4c-7.15,2.04-18.46,2.14-20.59.17-1.5-1.39-3.12-4.52-3.14-6.7l-.22-22.03c-.02-1.99.41-4.65,1.39-6.69l22.62.38-.06,34.87ZM282.73,267.51l.06-24.39-13.52.1.71,24.33c4.67.98,8.48,1.07,12.76-.04Z" fill="#d97a2b" stroke="#d97a33" stroke-miterlimit="10" stroke-width="1.01"/><path d="M210.61,322.06c-2.47,5-6.74,6.56-11.1,5.79-4.77-.85-6.93-4.56-7.52-9.82-.46-4.14,1.17-8.05,4.15-10.35,3.28-2.54,8.89-2.88,12.16-.02,3.9,3.42,4.53,9.89,2.31,14.4ZM207,317.3c-.05-3.9-1.55-5.85-5.18-5.62-2.61.16-4.01,2.28-4.15,5.56s2.1,5.47,5.14,5.4c2.71-.06,4.22-2.46,4.19-5.34Z" fill="#d97a2b" stroke="#d97a33" stroke-miterlimit="10" stroke-width="1.01"/><path d="M241.53,326.22c-3.19,2.62-9.17,1.57-11.6-1.15-5.18-5.81-4.48-14.81,2.15-18.81,3.22-1.94,8.35-.51,10.57,2.1,4.49,5.24,4.66,13.09-1.13,17.86ZM240.68,317.27c.2-3.4-2.1-5.64-4.54-5.56-3.1.1-4.2,2.39-4.18,5.5.02,3,1.42,5.18,4.28,5.26,2.4.07,4.26-2.14,4.44-5.21Z" fill="#d97a2b" stroke="#d97a33" stroke-miterlimit="10" stroke-width="1.01"/><polygon points="350.5 249.29 317.63 249 317.12 221.31 341.86 221.47 350.5 249.29" fill="none" stroke="#d97a33" stroke-miterlimit="10" stroke-width="1.01"/><path d="M184.44,246.55l-30.94.04c-1.32-1.11-2.52-3.44-2.52-5.13v-18.29s37.28-.03,37.28-.03l.17,20c.01,1.41-2.64,3.39-3.99,3.4Z" fill="none" stroke="#d97a33" stroke-miterlimit="10" stroke-width="1.01"/><path d="M282.73,267.51c-4.28,1.11-8.09,1.02-12.76.04l-.71-24.33,13.52-.1-.06,24.39Z" fill="none" stroke="#d97a33" stroke-miterlimit="10" stroke-width="1.01"/><path d="M207,317.3c.03,2.88-1.48,5.27-4.19,5.34-3.03.07-5.28-2.1-5.14-5.4s1.53-5.39,4.15-5.56c3.63-.23,5.13,1.73,5.18,5.62Z" fill="none" stroke="#d97a33" stroke-miterlimit="10" stroke-width="1.01"/><path d="M240.68,317.27c-.18,3.07-2.04,5.28-4.44,5.21-2.86-.08-4.25-2.26-4.28-5.26-.02-3.11,1.08-5.4,4.18-5.5,2.45-.08,4.74,2.16,4.54,5.56Z" fill="none" stroke="#d97a33" stroke-miterlimit="10" stroke-width="1.01"/></svg>